<?xml version="1.0" standalone="no"?>
<!DOCTYPE svg PUBLIC "-//W3C//DTD SVG 20010904//EN"
 "http://www.w3.org/TR/2001/REC-SVG-20010904/DTD/svg10.dtd">
<svg version="1.0" xmlns="http://www.w3.org/2000/svg"
 width="1080.000000pt" height="1080.000000pt" viewBox="0 0 1080.000000 1080.000000"
 preserveAspectRatio="xMidYMid meet">

<g transform="translate(0.000000,1080.000000) scale(0.100000,-0.100000)"
fill="#000000" stroke="none">
<path d="M6466 8568 c-9 -12 -16 -26 -16 -30 0 -7 -16 -43 -99 -221 -23 -49
-41 -90 -41 -92 0 -2 -22 -52 -50 -110 -27 -58 -50 -109 -50 -112 0 -4 -22
-53 -50 -110 -27 -57 -50 -108 -50 -113 0 -10 58 -50 71 -50 4 0 14 17 22 38
8 20 29 69 46 107 62 137 74 148 91 83 7 -24 18 -58 26 -76 8 -18 14 -43 15
-55 0 -12 15 -64 32 -116 31 -90 34 -95 76 -118 24 -13 46 -23 49 -23 5 0 0
24 -28 115 -11 39 -27 93 -35 120 -7 28 -23 82 -34 120 -20 69 -20 70 -1 85
11 8 41 24 68 34 26 11 76 33 112 49 36 16 84 38 108 48 50 22 52 32 12 49
-39 16 -82 9 -161 -28 -153 -72 -200 -92 -219 -92 -11 0 -20 2 -20 4 0 3 23
53 50 111 28 58 50 108 50 110 0 2 22 50 50 108 68 144 69 152 31 171 -38 20
-37 20 -55 -6z"/>
<path d="M4448 8512 c-32 -19 -34 -38 -14 -105 l14 -45 -49 -21 c-48 -20 -57
-33 -40 -60 7 -10 22 -12 64 -7 l54 7 27 -88 c15 -48 33 -104 40 -123 27 -74
38 -106 47 -143 17 -71 65 -128 124 -147 31 -10 46 -9 93 5 86 27 122 51 122
85 0 36 -25 58 -48 42 -86 -62 -124 -68 -163 -24 -35 37 -52 85 -154 419 -2 6
8 15 23 21 15 5 43 15 62 21 19 7 50 16 68 21 19 5 35 10 38 13 4 4 -15 67
-20 67 -2 0 -29 -9 -62 -21 -108 -37 -128 -40 -141 -22 -7 9 -13 23 -13 30 0
18 -31 93 -39 93 -3 0 -18 -8 -33 -18z"/>
<path d="M5095 8514 c-27 -9 -57 -22 -66 -30 -8 -8 -20 -14 -25 -14 -13 0 -74
-63 -74 -76 0 -6 12 -21 26 -35 l26 -24 20 28 c11 15 41 39 66 54 38 23 58 27
119 28 89 0 115 -19 117 -85 1 -55 -29 -80 -133 -110 -176 -50 -235 -100 -236
-199 0 -72 31 -141 78 -170 79 -48 211 -35 276 27 21 20 41 44 44 52 5 13 8
12 19 -4 41 -60 43 -61 108 -59 34 0 64 4 67 7 3 3 3 17 -1 31 -5 20 -12 25
-40 25 -18 0 -38 6 -44 13 -10 11 -26 146 -41 344 -8 104 -35 159 -93 189 -46
24 -151 27 -213 8z m229 -306 c12 -48 5 -143 -13 -185 -45 -97 -184 -131 -258
-61 -19 18 -23 32 -23 79 0 51 3 60 29 81 31 26 48 34 159 68 40 12 75 26 78
31 9 16 21 10 28 -13z"/>
<path d="M5825 8494 c-101 -25 -178 -84 -212 -162 -8 -20 -20 -46 -26 -57 -6
-11 -13 -68 -15 -126 -4 -96 -2 -110 21 -160 50 -108 140 -159 280 -159 79 0
88 2 133 33 27 17 55 44 64 59 14 26 14 29 -13 55 l-28 28 -24 -32 c-38 -48
-85 -73 -139 -73 -61 0 -134 37 -172 87 -28 37 -29 41 -28 148 1 100 3 114 28
156 31 55 72 98 104 110 13 5 49 9 80 9 77 0 140 -33 167 -88 11 -23 27 -41
35 -42 25 0 60 29 60 51 0 25 -82 114 -118 127 -91 32 -160 45 -197 36z"/>
<path d="M3948 8360 c-100 -30 -221 -119 -253 -186 -19 -41 -20 -156 -1 -192
17 -32 71 -84 106 -103 14 -7 54 -13 90 -13 60 0 90 7 220 52 65 22 149 21
181 -3 51 -39 64 -66 64 -136 0 -63 -1 -67 -39 -102 -84 -79 -195 -111 -296
-83 -30 8 -56 13 -58 11 -2 -2 -6 -21 -9 -43 -7 -55 15 -67 132 -66 81 0 97 3
156 32 150 73 212 149 212 262 1 132 -85 230 -209 238 -61 4 -200 -27 -232
-51 -7 -6 -48 -12 -90 -15 -73 -4 -80 -3 -109 22 -38 32 -57 84 -48 127 10 43
69 105 129 137 42 22 65 26 126 27 41 0 78 4 82 10 4 5 8 24 8 41 0 27 -4 32
-31 38 -41 8 -97 6 -131 -4z"/>
<path d="M7239 7858 c-80 -73 -215 -196 -300 -272 -85 -77 -160 -147 -166
-157 -11 -15 -4 -27 54 -90 211 -231 281 -279 414 -279 72 0 115 11 169 41 8
5 30 16 48 25 49 25 165 144 200 207 62 111 59 253 -9 361 -33 54 -245 296
-258 296 -4 0 -72 -60 -152 -132z m186 -14 c61 -56 161 -196 184 -256 l24 -62
-19 -55 c-37 -108 -154 -235 -269 -292 -57 -28 -72 -31 -133 -27 -60 3 -75 8
-127 44 -33 22 -93 78 -133 125 l-73 84 49 45 c27 25 80 72 119 105 38 33 132
117 208 188 76 70 139 127 140 127 1 0 15 -12 30 -26z"/>
<path d="M3056 7675 c-31 -33 -26 -46 34 -93 26 -20 76 -61 111 -90 35 -30
108 -90 163 -135 54 -45 137 -115 185 -154 97 -82 133 -98 196 -88 33 4 52 15
74 41 37 42 39 68 7 89 -22 15 -25 14 -59 -20 l-36 -36 -33 17 c-18 9 -69 47
-113 83 -44 37 -96 80 -116 96 -146 118 -192 156 -249 205 -36 31 -82 69 -102
84 l-37 28 -25 -27z"/>
<path d="M2816 7338 c-33 -47 -32 -48 224 -202 52 -32 160 -98 240 -148 183
-114 212 -128 252 -128 19 0 49 11 68 24 39 26 76 87 67 109 -7 18 -60 33 -65
18 -9 -26 -46 -61 -65 -61 -23 0 -44 13 -592 349 -55 33 -103 61 -107 61 -4 0
-14 -10 -22 -22z"/>
<path d="M7635 7044 c-103 -27 -212 -84 -262 -136 -107 -111 -91 -304 35 -423
28 -26 138 -73 148 -62 3 2 7 21 11 40 5 33 3 36 -23 42 -50 11 -78 31 -116
86 -34 47 -38 58 -38 117 0 79 24 127 83 166 45 28 65 30 78 6 14 -27 75 -163
119 -264 23 -55 48 -106 56 -113 11 -11 25 -7 81 23 129 68 171 133 160 249
-3 35 -16 83 -27 106 -28 54 -99 124 -146 144 -40 17 -127 27 -159 19z m182
-126 c41 -39 83 -117 83 -153 0 -56 -46 -117 -118 -154 -22 -12 -24 -9 -53 56
-17 37 -45 100 -63 138 -36 76 -56 123 -56 130 0 12 71 24 119 20 44 -3 60
-10 88 -37z"/>
<path d="M2862 6873 c-6 -21 -8 -41 -4 -44 4 -4 61 -26 127 -48 264 -89 293
-104 334 -171 15 -25 21 -52 21 -93 0 -74 -31 -127 -88 -150 -35 -14 -45 -14
-98 -1 -33 8 -72 21 -89 28 -16 8 -61 24 -100 36 -38 12 -79 26 -90 31 -11 5
-38 15 -60 22 -22 8 -48 18 -57 21 -12 6 -21 0 -32 -23 -9 -16 -16 -36 -16
-44 0 -8 32 -24 78 -40 42 -15 129 -45 192 -69 101 -37 127 -42 219 -45 102
-4 104 -4 133 24 86 81 102 224 36 315 -20 27 -1 33 47 16 l44 -17 12 36 c6
19 7 38 3 42 -5 4 -56 25 -114 45 -58 21 -141 51 -185 67 -93 33 -290 99 -297
99 -3 0 -10 -17 -16 -37z"/>
<path d="M7880 6364 c-113 -64 -239 -134 -280 -156 -41 -23 -83 -46 -92 -52
-19 -11 -22 -44 -12 -106 l6 -36 86 -18 c48 -10 115 -25 150 -33 34 -8 86 -19
115 -23 28 -5 93 -19 142 -30 131 -32 164 -38 170 -32 10 10 5 70 -7 79 -7 6
-40 16 -73 23 -33 6 -91 19 -130 27 -38 8 -97 19 -130 24 -33 6 -82 17 -110
24 -27 8 -65 17 -82 20 -18 4 -35 10 -38 15 -3 4 28 27 68 49 39 23 79 46 87
52 8 5 24 13 35 18 39 18 290 162 302 174 9 9 10 26 5 55 l-7 42 -205 -116z"/>
<path d="M2445 6218 c-3 -7 -9 -107 -14 -223 -5 -115 -11 -219 -13 -230 -5
-32 63 -42 369 -55 153 -6 302 -15 332 -21 30 -5 76 -9 103 -9 l48 0 0 45 c0
45 0 45 -35 45 -19 0 -67 4 -107 10 -40 5 -109 12 -152 16 l-79 6 6 178 c6
190 6 190 -42 190 -15 0 -19 -13 -25 -92 -3 -50 -6 -128 -6 -173 0 -57 -4 -86
-13 -94 -10 -8 -49 -8 -138 -1 -68 5 -137 10 -153 10 l-29 0 8 138 c4 75 8
166 9 202 l1 65 -33 3 c-20 2 -34 -2 -37 -10z"/>
<path d="M7725 5739 c-89 -11 -169 -67 -211 -149 -22 -44 -32 -202 -15 -252
16 -47 71 -108 99 -108 39 0 38 39 -2 99 -31 45 -36 61 -36 108 0 68 31 135
78 171 35 27 130 53 161 45 22 -6 34 -29 24 -46 -4 -6 -14 -86 -24 -177 -9
-91 -20 -179 -24 -197 -7 -31 -6 -32 36 -43 63 -17 126 -16 186 4 57 20 120
76 129 115 4 15 12 45 20 69 18 55 17 94 -4 159 -37 114 -143 187 -290 201
-42 4 -100 4 -127 1z m243 -123 c77 -29 107 -77 107 -170 0 -81 -20 -126 -70
-155 -34 -21 -105 -34 -129 -25 -21 8 -21 68 0 204 9 58 18 120 21 138 2 18 7
32 11 30 4 -2 31 -12 60 -22z"/>
<path d="M3245 5280 c-22 -11 -45 -19 -52 -20 -7 0 -29 -7 -50 -16 -73 -31
-98 -41 -153 -62 -30 -11 -85 -32 -122 -46 -38 -14 -98 -37 -135 -51 -38 -14
-81 -32 -98 -39 -16 -8 -51 -21 -77 -31 -49 -17 -57 -30 -38 -66 13 -23 69
-26 108 -5 15 7 54 23 87 35 33 12 74 28 90 36 17 7 59 23 95 36 36 13 76 29
90 36 14 7 32 13 40 13 9 0 25 6 36 14 22 16 94 32 94 21 0 -8 -50 -80 -105
-151 -71 -92 -200 -268 -213 -292 -8 -13 -26 -37 -40 -54 -15 -16 -44 -54 -65
-85 -37 -53 -38 -59 -28 -92 23 -77 26 -78 132 -37 52 20 107 43 122 51 16 8
35 15 42 15 8 0 29 7 47 15 18 8 76 31 128 51 193 73 225 86 235 95 5 5 17 9
27 9 11 0 37 9 59 21 40 20 40 21 25 44 -9 13 -16 32 -16 41 0 11 -5 14 -17 9
-10 -4 -53 -20 -95 -35 -42 -16 -85 -33 -95 -39 -10 -5 -67 -28 -128 -50 -60
-22 -158 -59 -218 -82 -59 -23 -110 -39 -113 -36 -5 5 41 72 139 202 12 16 75
99 139 185 65 85 134 175 153 200 68 85 71 92 48 136 -10 21 -24 39 -29 41 -5
1 -27 -6 -49 -17z"/>
<path d="M7442 5102 c-18 -10 -44 -36 -57 -57 -26 -43 -33 -105 -12 -105 6 0
21 -3 33 -6 17 -5 24 2 38 39 9 25 24 48 34 52 14 5 122 -28 407 -125 120 -41
177 -60 210 -70 17 -5 48 -15 70 -23 84 -30 90 -30 108 8 l17 35 -38 18 c-20
10 -71 29 -112 41 -41 13 -86 27 -99 32 -60 25 -265 89 -281 89 -11 0 -21 4
-24 9 -7 11 -160 61 -186 61 -10 0 -22 5 -25 10 -9 15 -46 11 -83 -8z"/>
<path d="M7367 4821 c-106 -35 -207 -181 -207 -300 0 -127 106 -247 273 -309
113 -43 213 -22 296 60 96 95 126 225 77 331 -53 115 -209 218 -341 223 -38 2
-82 -1 -98 -5z m181 -107 c92 -37 176 -117 192 -184 15 -62 0 -121 -46 -176
-83 -102 -198 -98 -346 13 -75 57 -99 98 -99 168 0 43 6 67 27 103 31 53 50
70 108 94 48 21 73 18 164 -18z"/>
<path d="M3538 4602 c-32 -52 -39 -62 -76 -123 -71 -116 -82 -143 -82 -198 0
-28 -2 -51 -4 -51 -2 0 -25 9 -51 20 -90 39 -186 14 -249 -64 -63 -79 -71
-148 -27 -238 17 -36 146 -198 227 -287 26 -28 30 -26 110 46 59 52 85 74 260
217 50 41 123 103 161 138 39 35 87 77 108 95 l37 32 -23 30 c-24 30 -53 39
-64 21 -4 -6 -65 -60 -137 -121 l-130 -110 -34 38 c-18 21 -55 68 -80 105 -46
65 -47 69 -36 105 6 21 43 90 82 153 89 146 94 159 80 185 -6 12 -20 26 -30
33 -16 10 -22 7 -42 -26z m-216 -421 c28 -11 169 -155 196 -201 17 -28 15 -30
-114 -135 l-103 -84 -62 67 c-120 130 -150 200 -111 260 22 35 71 81 97 92 27
12 68 12 97 1z"/>
<path d="M6808 4534 l-26 -27 113 -125 c63 -69 112 -129 110 -132 -3 -4 -28
-7 -57 -7 -31 0 -68 -8 -88 -18 -86 -43 -170 -162 -170 -239 0 -116 118 -281
253 -353 52 -28 170 -32 218 -7 89 45 149 136 151 226 1 27 4 48 8 48 4 0 17
-11 30 -25 13 -14 31 -25 39 -25 20 1 64 37 59 49 -1 5 -28 36 -58 68 -30 32
-84 92 -120 133 -35 41 -90 102 -121 135 -32 33 -68 72 -81 86 -13 15 -65 74
-117 133 -51 58 -99 106 -105 106 -6 0 -23 -12 -38 -26z m274 -385 c70 -41 99
-71 142 -150 47 -87 50 -147 7 -206 -36 -50 -73 -77 -127 -93 -35 -11 -49 -10
-94 5 -100 33 -230 192 -230 281 0 61 46 128 120 177 43 28 121 22 182 -14z"/>
<path d="M3983 4118 c-15 -34 -1 -59 48 -87 25 -15 78 -47 117 -73 40 -27 75
-48 78 -48 3 0 25 -14 48 -32 22 -17 43 -33 45 -35 6 -4 -27 -62 -91 -159 -29
-45 -58 -90 -64 -99 -14 -24 -8 -27 -218 108 -58 37 -109 67 -113 67 -5 0 -15
-13 -24 -29 l-17 -29 99 -63 c141 -91 209 -139 209 -148 0 -5 -27 -49 -60 -99
-33 -49 -60 -94 -60 -99 0 -6 -8 -17 -18 -27 -18 -15 -22 -14 -78 23 -109 71
-229 147 -261 166 -31 18 -33 18 -53 0 -11 -10 -20 -23 -20 -29 0 -6 37 -36
83 -66 45 -29 105 -69 132 -87 28 -18 55 -33 62 -33 6 0 13 -4 15 -8 5 -13
128 -92 143 -92 7 0 16 7 19 17 4 9 26 46 50 82 108 165 196 302 196 307 0 3
16 26 35 51 19 25 35 50 35 54 0 4 19 36 43 71 24 35 53 79 65 99 l22 36 -85
54 c-47 30 -111 71 -143 91 -76 49 -221 138 -226 138 -1 0 -7 -10 -13 -22z"/>
<path d="M6375 3880 c-63 -11 -123 -44 -176 -95 -40 -38 -50 -56 -59 -102 -13
-63 -7 -76 36 -71 20 2 30 9 32 23 12 77 64 129 160 160 62 20 116 9 167 -36
33 -29 81 -97 74 -103 -2 -1 -93 -46 -201 -99 -229 -112 -224 -105 -156 -208
49 -75 59 -83 116 -109 122 -55 302 22 363 155 43 94 13 247 -74 369 -67 94
-170 137 -282 116z m285 -351 c17 -72 0 -129 -53 -174 -22 -19 -56 -40 -75
-46 -47 -15 -127 -6 -153 17 -21 19 -69 88 -69 99 0 3 15 13 33 21 17 8 39 18
47 23 47 27 228 110 242 110 11 1 20 -14 28 -50z"/>
<path d="M4531 3730 c-6 -28 -11 -60 -11 -71 0 -11 -5 -29 -10 -39 -6 -10 -14
-45 -20 -77 -5 -32 -18 -96 -30 -143 -11 -47 -27 -119 -35 -160 -8 -41 -23
-113 -34 -160 -12 -47 -24 -97 -27 -112 -5 -23 -3 -28 12 -28 11 0 37 -7 59
-15 22 -8 45 -14 51 -15 5 0 39 46 74 103 35 56 84 134 109 174 25 39 55 86
66 105 136 225 170 277 180 274 10 -3 24 -89 45 -266 13 -112 38 -299 51 -380
6 -36 13 -79 16 -97 5 -29 10 -33 55 -42 86 -19 89 -17 107 89 7 36 16 80 22
97 6 18 14 54 19 80 10 51 35 169 69 323 22 97 39 180 43 214 2 15 -5 21 -29
26 -35 8 -53 -3 -53 -32 0 -10 -4 -26 -10 -36 -5 -9 -13 -42 -19 -72 -5 -30
-14 -73 -20 -95 -6 -22 -11 -56 -11 -75 0 -20 -4 -40 -10 -46 -10 -10 -30
-101 -51 -224 -21 -122 -39 -125 -57 -8 -6 46 -16 120 -21 165 -5 45 -14 97
-19 115 -6 18 -13 74 -16 123 -6 85 -30 244 -37 248 -2 2 -21 9 -42 16 -43 14
-61 6 -81 -39 -6 -14 -33 -58 -59 -98 -26 -40 -47 -75 -47 -78 0 -3 -16 -26
-35 -51 -19 -25 -35 -49 -35 -53 0 -4 -22 -41 -50 -83 -27 -42 -50 -79 -50
-83 0 -3 -13 -23 -30 -44 -16 -20 -34 -49 -39 -64 -6 -14 -17 -26 -26 -26 -12
0 -14 8 -9 43 4 23 11 50 15 59 5 9 12 45 15 80 3 35 12 77 19 93 8 17 23 80
35 140 12 61 28 132 36 159 20 70 19 126 -3 126 -10 0 -28 3 -39 6 -20 5 -23
0 -33 -46z"/>
<path d="M5909 3703 c-3 -24 4 -74 16 -113 7 -25 19 -74 25 -110 7 -36 16 -87
22 -115 31 -154 -21 -246 -147 -259 -27 -2 -51 -5 -52 -5 -2 -1 -3 -19 -3 -41
0 -40 0 -40 38 -40 82 0 153 42 179 106 10 24 21 44 24 44 9 0 29 -49 29 -70
0 -16 7 -20 36 -20 l37 0 -6 68 c-5 62 -17 119 -52 247 -7 28 -18 77 -23 110
-10 56 -25 130 -37 183 -4 18 -12 22 -45 22 -22 0 -40 -3 -41 -7z"/>
</g>
</svg>
